<svg width="64" height="64" viewBox="0 0 64 64" xmlns="http://www.w3.org/2000/svg">
  <!-- Background circle -->
  <circle cx="32" cy="32" r="30" fill="#667eea" stroke="#4c63d2" stroke-width="2"/>

  <!-- Robot head -->
  <rect x="20" y="18" width="24" height="20" rx="4" fill="#ffffff" stroke="#333" stroke-width="1"/>

  <!-- Eyes -->
  <circle cx="26" cy="26" r="3" fill="#333"/>
  <circle cx="38" cy="26" r="3" fill="#333"/>
  <circle cx="26" cy="26" r="1" fill="#00ff00"/>
  <circle cx="38" cy="26" r="1" fill="#00ff00"/>

  <!-- Mouth -->
  <rect x="28" y="32" width="8" height="2" fill="#333"/>

  <!-- Antenna -->
  <line x1="32" y1="18" x2="32" y2="12" stroke="#333" stroke-width="2"/>
  <circle cx="32" cy="10" r="2" fill="#ff6b6b"/>

  <!-- CSS brackets -->
  <text x="8" y="50" font-family="monospace" font-size="12" fill="#333">{</text>
  <text x="48" y="50" font-family="monospace" font-size="12" fill="#333">}</text>

  <!-- Sparkles for AI magic -->
  <polygon points="50,15 52,19 56,19 53,22 54,26 50,23 46,26 47,22 44,19 48,19" fill="#ffd700"/>
  <circle cx="14" cy="14" r="1.5" fill="#ffd700"/>
  <circle cx="50" cy="45" r="1.5" fill="#ffd700"/>
</svg>